<svg xmlns="http://www.w3.org/2000/svg" xmlns:xlink="http://www.w3.org/1999/xlink" width="16" height="16" preserveAspectRatio="xMidYMid meet" viewBox="0 0 16 16" style="-ms-transform: rotate(360deg); -webkit-transform: rotate(360deg); transform: rotate(360deg);"><path d="M8 1.45l6.705 13.363H1.296L8.001 1.45zM8 0c-.345 0-.69.233-.951.698L.22 14.309C-.303 15.239.142 16 1.209 16h13.583c1.067 0 1.512-.761.989-1.691L8.952.698C8.69.233 8.346 0 8.001 0z" fill="#ffae42"/><path d="M9 13a1 1 0 1 1-2 0a1 1 0 0 1 2 0z" fill="#ffae42"/><path d="M8 11a1 1 0 0 1-1-1V7a1 1 0 0 1 2 0v3a1 1 0 0 1-1 1z" fill="#ffae42"/><rect x="0" y="0" width="16" height="16" fill="rgba(0, 0, 0, 0)" /></svg>