<svg xmlns="http://www.w3.org/2000/svg" viewBox="-861 865.3 276.2 271.2">
<path fill-rule="evenodd" d="M-795.6,897.6c0,17.8-14.5,32.3-32.3,32.3c-17.8,0-32.3-14.5-32.3-32.3s14.5-32.3,32.3-32.3
	C-810,865.3-795.6,879.8-795.6,897.6z M-723.3,865.3c-17.8,0-32.3,14.5-32.3,32.3s14.5,32.3,32.3,32.3c17.8,0,32.3-14.5,32.3-32.3
	S-705.5,865.3-723.3,865.3z M-617.1,929.9c17.8,0,32.3-14.5,32.3-32.3s-14.5-32.3-32.3-32.3c-17.8,0-32.3,14.5-32.3,32.3
	S-634.9,929.9-617.1,929.9z M-828.7,1033.4c17.8,0,32.3-14.5,32.3-32.3c0-17.8-14.5-32.3-32.3-32.3s-32.3,14.5-32.3,32.3
	S-846.5,1033.4-828.7,1033.4z M-724.2,1033.4c17.8,0,32.3-14.5,32.3-32.3c0-17.8-14.5-32.3-32.3-32.3c-17.8,0-32.3,14.5-32.3,32.3
	C-756.5,1018.9-742,1033.4-724.2,1033.4z M-618,1033.4c17.8,0,32.3-14.5,32.3-32.3c0-17.8-14.5-32.3-32.3-32.3
	c-17.8,0-32.3,14.5-32.3,32.3C-650.3,1018.9-635.8,1033.4-618,1033.4z M-828,1071.9c-17.8,0-32.3,14.5-32.3,32.3
	c0,17.8,14.5,32.3,32.3,32.3s32.3-14.5,32.3-32.3C-795.7,1086.4-810.2,1071.9-828,1071.9z M-723.4,1071.9
	c-17.8,0-32.3,14.5-32.3,32.3c0,17.8,14.5,32.3,32.3,32.3c17.8,0,32.3-14.5,32.3-32.3C-691.1,1086.4-705.6,1071.9-723.4,1071.9z
	 M-617.2,1071.9c-17.8,0-32.3,14.5-32.3,32.3c0,17.8,14.5,32.3,32.3,32.3c17.8,0,32.3-14.5,32.3-32.3
	C-584.9,1086.4-599.4,1071.9-617.2,1071.9z"/>
</svg>